<?xml version="1.0" standalone="no"?>
<!DOCTYPE svg PUBLIC "-//W3C//DTD SVG 20010904//EN"
 "http://www.w3.org/TR/2001/REC-SVG-20010904/DTD/svg10.dtd">
<svg version="1.0" xmlns="http://www.w3.org/2000/svg"
 width="240.000000pt" height="240.000000pt" viewBox="0 0 240.000000 240.000000"
 preserveAspectRatio="xMidYMid meet">
<metadata>
Created by potrace 1.15, written by Peter Selinger 2001-2017
</metadata>
<g transform="translate(0.000000,240.000000) scale(0.100000,-0.100000)"
fill="#000000" stroke="none">
<path d="M175 2288 c-111 -42 -186 -158 -171 -266 17 -122 127 -222 246 -222
85 0 172 53 215 132 69 124 18 281 -112 343 -45 22 -136 29 -178 13z"/>
<path d="M1680 1635 c-138 -28 -237 -82 -325 -176 l-55 -60 0 100 0 101 -250
0 -250 0 0 -800 0 -800 250 0 249 0 3 478 3 477 33 67 c58 118 151 178 276
178 116 0 210 -69 258 -189 23 -55 23 -64 26 -533 l3 -478 250 0 250 0 -4 583
c-4 640 -2 625 -69 765 -104 220 -378 341 -648 287z"/>
<path d="M0 800 l0 -800 250 0 250 0 0 800 0 800 -250 0 -250 0 0 -800z"/>
</g>
</svg>
