<svg xmlns="http://www.w3.org/2000/svg" viewBox="0 0 84.664 73.671">
  <defs>
    <style>
      .cls-1 {
        fill: #0050ff;
      }
    </style>
  </defs>
  <g id="megaphone" transform="translate(-2134.745 -612)">
    <g id="Gruppe_438" data-name="Gruppe 438" transform="translate(2134.745 612)">
      <path id="Pfad_2047" data-name="Pfad 2047" class="cls-1" d="M53.472,91.858,57.2,105.892a1.881,1.881,0,0,1-1.432,2.291l-12.888,3.437a1.77,1.77,0,0,1-2.291-1.432l-4.869-17.47c-4.582,1.146-10.883,4.3-11.742,1.432h0L18.818,74.961a1.675,1.675,0,0,1,1.432-2.291C40.3,68.946,52.04,59.781,63.21,43.743c1.146-1.432,3.15-1.146,3.437.573l14.32,52.7c.573,2.291-.859,2.578-2.864,2C72.375,96.727,66.074,93,53.472,91.858ZM87.84,68.373a1.814,1.814,0,1,1-1.146-3.437l11.456-3.15c2.578-.859,3.437,2.864,1.146,3.723Zm2,18.9c-2.291-.573-1.432-5.155.859-4.582l11.456,3.15c2.291.573,1.146,5.155-1.146,4.582ZM81.253,50.044c-1.718,1.718-4.582-.859-2.864-2.578l8.878-8.878c1.718-1.718,4.582.859,2.578,2.578Zm-41.814,42.1,4.3,15.465,9.451-2.578L49.463,91.572A30.757,30.757,0,0,0,39.439,92.144Zm24.63-2.291L55.763,58.922C48.6,65.8,40.584,71.237,30.847,74.1l4.01,14.893A63.015,63.015,0,0,1,64.069,89.853ZM68.365,91c2.578.859,5.155,2,7.733,3.15L64.069,49.185l-5.442,6.587Zm-41.241.286,4.01-1.432-4.01-14.606-4.01.859Z" transform="translate(-18.745 -38.021)"/>
    </g>
  </g>
</svg>
