<svg xmlns="http://www.w3.org/2000/svg" viewBox="0 0 38 2036">
  <defs>
    <style>
      .cls-1 {
        fill: #eae222;
      }
    </style>
  </defs>
  <g id="elemnts" transform="translate(-853 483)">
    <g id="Gruppe_370" data-name="Gruppe 370" transform="translate(-824 -4619)">
      <rect id="Rechteck_23" data-name="Rechteck 23" class="cls-1" width="38" height="115" rx="19" transform="translate(1677 4562)"/>
      <rect id="Rechteck_324" data-name="Rechteck 324" class="cls-1" width="38" height="115" rx="19" transform="translate(1677 4136)"/>
      <rect id="Rechteck_24" data-name="Rechteck 24" class="cls-1" width="38" height="115" rx="19" transform="translate(1677 4775)"/>
      <rect id="Rechteck_323" data-name="Rechteck 323" class="cls-1" width="38" height="115" rx="19" transform="translate(1677 4349)"/>
      <rect id="Rechteck_25" data-name="Rechteck 25" class="cls-1" width="38" height="115" rx="19" transform="translate(1677 4988)"/>
      <rect id="Rechteck_26" data-name="Rechteck 26" class="cls-1" width="38" height="115" rx="19" transform="translate(1677 5201)"/>
    </g>
    <g id="Gruppe_395" data-name="Gruppe 395" transform="translate(-824 -3550)">
      <rect id="Rechteck_23-2" data-name="Rechteck 23" class="cls-1" width="38" height="115" rx="19" transform="translate(1677 4562)"/>
      <rect id="Rechteck_324-2" data-name="Rechteck 324" class="cls-1" width="38" height="115" rx="19" transform="translate(1677 4136)"/>
      <rect id="Rechteck_24-2" data-name="Rechteck 24" class="cls-1" width="38" height="115" rx="19" transform="translate(1677 4775)"/>
      <rect id="Rechteck_323-2" data-name="Rechteck 323" class="cls-1" width="38" height="115" rx="19" transform="translate(1677 4349)"/>
      <rect id="Rechteck_25-2" data-name="Rechteck 25" class="cls-1" width="38" height="115" rx="19" transform="translate(1677 4988)"/>
    </g>
  </g>
</svg>
